<svg xmlns="http://www.w3.org/2000/svg" viewBox="0 0 210 297" height="1122.52" width="793.701"><style type="text/css"><![CDATA[.B{font-size:8.467px}.C{font-weight:400}.D{fill-rule:evenodd}.E{stroke-width:.625}.F{stroke-linejoin:round}]]>@font-face {font-family: 'Supply';src: url('/static/Supply-Regular.otf');}</style><defs><marker id="A" refX="0.0" refY="0.0" orient="auto" overflow="visible"><path transform="matrix(.6 0 0 .6 0 0)" d="M8.72 4.034L-2.207.016 8.72-4.002c-1.745 2.372-1.735 5.617 0 8.035z" stroke="#000" stroke-opacity="1" fill="#000" fill-opacity="1" class="D E F"/></marker><marker id="B" refX="0.0" refY="0.0" orient="auto" overflow="visible"><path transform="matrix(-.6 0 0 -.6 0 0)" d="M8.72 4.034L-2.207.016 8.72-4.002c-1.745 2.372-1.735 5.617 0 8.035z" stroke="#000" stroke-opacity="1" fill="#000" fill-opacity="1" class="D E F"/></marker></defs><g fill="none"><path d="M152.146 0H210v57.854M57.854 297H0v-57.854" stroke="#16003a" stroke-width="4.293" stroke-linejoin="bevel"/><path d="M182.146 27.854L27.854 269.146" stroke="#000" stroke-width="2.794" stroke-miterlimit="3.9" marker-start="url(#A)" marker-end="url(#B)"/></g><text transform="scale(.94618398 1.0568769)" y="12.099" x="5.832" xml:space="preserve" font-family="Supply" fill="#16003a" class="B"><tspan dx="0 0 0 0 0" y="12.099" x="5.832" font-weight="normal" class="B">(def new-software</tspan><tspan y="22.682" x="5.832" font-weight="normal" class="B"> (fold build '(programmable</tspan><tspan y="33.266" x="5.832" font-weight="normal" class="B">               peer-to-peer</tspan><tspan y="43.849" x="5.832" font-weight="normal" class="B">               private</tspan><tspan y="54.432" x="5.832" font-weight="normal" class="B">               fast</tspan><tspan y="65.142" x="5.832" font-weight="normal" class="B">               cute)))</tspan></text></svg>
