<?xml version="1.0" encoding="UTF-8" standalone="no"?>
<svg
   xmlns:dc="http://purl.org/dc/elements/1.1/"
   xmlns:cc="http://creativecommons.org/ns#"
   xmlns:rdf="http://www.w3.org/1999/02/22-rdf-syntax-ns#"
   xmlns:svg="http://www.w3.org/2000/svg"
   xmlns="http://www.w3.org/2000/svg"
   xmlns:sodipodi="http://sodipodi.sourceforge.net/DTD/sodipodi-0.dtd"
   xmlns:inkscape="http://www.inkscape.org/namespaces/inkscape"
   inkscape:version="1.0 (4035a4f, 2020-05-01)"
   sodipodi:docname="banner.svg"
   id="svg2222"
   viewBox="0 0 210 297"
   version="1.1"
   height="1122.5"
   width="793.7">
  <sodipodi:namedview
     inkscape:current-layer="svg2222"
     inkscape:window-maximized="0"
     inkscape:window-y="23"
     inkscape:window-x="0"
     inkscape:cy="429.07513"
     inkscape:cx="341.61275"
     inkscape:zoom="0.50690423"
     showgrid="false"
     id="namedview2224"
     inkscape:window-height="708"
     inkscape:window-width="1077"
     inkscape:pageshadow="2"
     inkscape:pageopacity="0"
     guidetolerance="10"
     gridtolerance="10"
     objecttolerance="10"
     borderopacity="1"
     bordercolor="#666666"
     pagecolor="#ffffff" />
  <metadata
     id="metadata2062">
    <rdf:RDF>
      <cc:Work
         rdf:about="">
        <dc:format>image/svg+xml</dc:format>
        <dc:type
           rdf:resource="http://purl.org/dc/dcmitype/StillImage" />
        <dc:title></dc:title>
      </cc:Work>
    </rdf:RDF>
  </metadata>
  <style
     id="style2064"><![CDATA[.B{font-size:8.467px}.C{font-weight:400}.D{fill-rule:evenodd}.E{stroke-width:.625}.F{stroke-linejoin:round}]]>@font-face {font-family: 'Bagnard';src: url('/static/BagnardSans.otf');}</style>
  <defs
     id="defs2072">
    <marker
       orient="auto"
       overflow="visible"
       id="c">
      <path
         id="path2066"
         stroke="#000"
         d="M8.72 4.034L-2.207.016 8.72-4.002c-1.745 2.372-1.735 5.617 0 8.035z"
         transform="scale(.6)"
         class="D E F" />
    </marker>
    <marker
       orient="auto"
       overflow="visible"
       id="d">
      <path
         id="path2069"
         stroke="#000"
         d="M8.72 4.034L-2.207.016 8.72-4.002c-1.745 2.372-1.735 5.617 0 8.035z"
         transform="scale(-.6)"
         class="D E F" />
    </marker>
  </defs>
  <g
     id="g2078"
     fill="none"
     transform="matrix(.97761 0 0 .98592 2.6139 2.0937)">
    <path
       id="path2074"
       stroke-width="4.3728"
       stroke-linejoin="bevel"
       stroke="#16003a"
       d="M 152.146,0 H 210 V 57.854 M 57.854,297 H 0 v -57.854" />
    <path
       id="path2076"
       stroke-width="2.8459"
       stroke-miterlimit="3.9"
       stroke="#000"
       marker-start="url(#c)"
       marker-end="url(#d)"
       d="m182.15 27.854-154.29 241.29" />
  </g>
  <g
     id="g2220"
     aria-label="(def new-software (fold build '(programmable               peer-to-peer               private               fast               cute)))"
     fill="#16003a"
     transform="scale(.94618 1.0569)"
     class="B">
    <path
       id="path2080"
       d="m9.5575 12.954v-0.85517h-0.8467c-0.37255 0-0.67736-0.30481-0.67736-0.67736v-4.5722c0-0.37255 0.29634-0.67736 0.67736-0.67736h0.8467v-0.8467h-0.8467c-0.83823 0-1.5241 0.67736-1.5241 1.5241v4.5722c0 0.83823 0.68583 1.5325 1.5241 1.5325z" />
    <path
       id="path2082"
       d="m14.465 6.0874v2.1676l-0.70276-0.47415h-0.65196c-0.83823 0-1.5241 0.67736-1.5241 1.5241v1.27c0 0.83823 0.68583 1.5241 1.5241 1.5241h0.65196l0.70276-0.47415v0.47415h0.8467v-6.0116zm-0.96524 5.1649h-0.38948c-0.37255 0-0.67736-0.30481-0.67736-0.67736v-1.27c0-0.37255 0.30481-0.67736 0.67736-0.67736h0.38948l0.96524 0.65196v1.3209z" />
    <path
       id="path2084"
       d="m20.389 9.2202c-0.042335-0.80436-0.70276-1.4394-1.5241-1.4394h-0.67736c-0.83823 0-1.5241 0.67736-1.5241 1.5241v1.2616c0 0.83823 0.68583 1.5325 1.5241 1.5325h0.67736c0.8467 0 1.5241-0.69429 1.5241-1.5325v-0.08467h-0.8467v0.08467c0 0.37255-0.30481 0.67736-0.67736 0.67736h-0.67736c-0.37255 0-0.67736-0.30481-0.67736-0.67736v-0.43182h2.8788v-0.7451zm-0.8467 0.23708h-2.0321v-0.15241c0-0.37255 0.29634-0.67736 0.67736-0.67736h0.67736c0.38102 0 0.67736 0.29634 0.67736 0.67736z" />
    <path
       id="path2086"
       d="m24.661 6.9341h0.80436v-0.8467h-0.80436c-0.8467 0-1.5241 0.67736-1.5241 1.5241v0.42335h-1.3971v0.8467h1.3971v3.2175h0.8467v-3.2175h1.4817v-0.8467h-1.4817v-0.42335c0-0.38102 0.29634-0.67736 0.67736-0.67736z" />
    <path
       id="path2088"
       d="m34.095 7.7808h-0.65196l-0.70276 0.47415v-0.47415h-0.8467v4.3182h0.8467v-2.8195l0.96524-0.65196h0.38948c0.37255 0 0.67736 0.30481 0.67736 0.67736v2.7941h0.8467v-2.7941c0-0.8467-0.68583-1.5241-1.5241-1.5241z" />
    <path
       id="path2090"
       d="m40.696 9.2202c-0.042335-0.80436-0.70276-1.4394-1.5241-1.4394h-0.67736c-0.83823 0-1.5241 0.67736-1.5241 1.5241v1.2616c0 0.83823 0.68583 1.5325 1.5241 1.5325h0.67736c0.8467 0 1.5241-0.69429 1.5241-1.5325v-0.08467h-0.8467v0.08467c0 0.37255-0.30481 0.67736-0.67736 0.67736h-0.67736c-0.37255 0-0.67736-0.30481-0.67736-0.67736v-0.43182h2.8788v-0.7451zm-0.8467 0.23708h-2.0321v-0.15241c0-0.37255 0.29634-0.67736 0.67736-0.67736h0.67736c0.38102 0 0.67736 0.29634 0.67736 0.67736z" />
    <path
       id="path2092"
       d="m44.926 7.7808v1.6934l-0.15241 1.0245-0.51649-1.9559h-0.69429l-0.51649 1.9559-0.15241-1.0245v-1.6934h-0.8467v1.9474l0.50802 2.3708h0.67736l0.67736-2.0236 0.67736 2.0236h0.67736l0.50802-2.3708v-1.9474z" />
    <path
       id="path2094"
       d="m47.463 9.415v0.8467h3.0481v-0.8467z" />
    <path
       id="path2096"
       d="m52.201 10.677v0.16934c0 0.7197 0.60962 1.2531 1.4309 1.2531h0.85517c0.85517 0 1.4394-0.48262 1.4394-1.1938 0-1.7273-2.8195-1.2955-2.8195-1.9813 0-0.17781 0.15241-0.29634 0.50802-0.29634h0.81283c0.29634 0 0.50802 0.17781 0.50802 0.41488v0.076203h0.8467v-0.076203c0-0.71123-0.59269-1.2616-1.3547-1.2616h-0.81283c-0.80436 0-1.3547 0.45722-1.3547 1.143 0 1.6426 2.8195 1.0245 2.8195 1.9813 0 0.21168-0.19474 0.34715-0.59269 0.34715h-0.85517c-0.36408 0-0.58422-0.16934-0.58422-0.40642v-0.16934z" />
    <path
       id="path2098"
       d="m59.48 12.099c0.8467 0 1.5241-0.66889 1.5241-1.5156v-1.2785c0-0.8467-0.67736-1.5241-1.5241-1.5241h-0.67736c-0.8467 0-1.5241 0.67736-1.5241 1.5241v1.2785c0 0.8467 0.67736 1.5156 1.5241 1.5156zm0-0.8467h-0.67736c-0.38102-0.0085-0.67736-0.28788-0.67736-0.66889v-1.2785c0-0.38102 0.29634-0.67736 0.67736-0.67736h0.67736c0.38102 0 0.67736 0.29634 0.67736 0.67736v1.2785c0 0.38102-0.29634 0.66889-0.67736 0.66889z" />
    <path
       id="path2100"
       d="m65.276 6.9341h0.80436v-0.8467h-0.80436c-0.8467 0-1.5241 0.67736-1.5241 1.5241v0.42335h-1.3971v0.8467h1.3971v3.2175h0.8467v-3.2175h1.4817v-0.8467h-1.4817v-0.42335c0-0.38102 0.29634-0.67736 0.67736-0.67736z" />
    <path
       id="path2102"
       d="m71.158 8.6275v-0.8467h-1.5664v-1.1007h-0.8467v1.1007h-1.3124v0.8467h1.3124v1.9474c0 0.8467 0.67736 1.5241 1.5241 1.5241h0.88904v-0.8467h-0.88904c-0.38102 0-0.67736-0.29634-0.67736-0.67736v-1.9474z" />
    <path
       id="path2104"
       d="m75.388 7.7808v1.6934l-0.15241 1.0245-0.51649-1.9559h-0.69429l-0.51649 1.9559-0.15241-1.0245v-1.6934h-0.8467v1.9474l0.50802 2.3708h0.67736l0.67736-2.0236 0.67736 2.0236h0.67736l0.50802-2.3708v-1.9474z" />
    <path
       id="path2106"
       d="m80.465 7.7808v0.47415l-0.70276-0.47415h-0.65196c-0.83823 0-1.5241 0.67736-1.5241 1.5241v1.27c0 0.83823 0.68583 1.5241 1.5241 1.5241h0.65196l0.70276-0.47415v0.47415h0.8467v-4.3182zm-0.96524 3.4715h-0.38948c-0.37255 0-0.67736-0.30481-0.67736-0.67736v-1.27c0-0.37255 0.30481-0.67736 0.67736-0.67736h0.38948l0.96524 0.65196v1.3209z" />
    <path
       id="path2108"
       d="m84.864 7.7808h-0.34715l-1.0076 0.67736v-0.67736h-0.8467v4.3182h0.8467v-2.6163l1.27-0.85517h0.08467c0.37255 0 0.67736 0.30481 0.67736 0.67736v0.33868h0.8467v-0.33868c0-0.8467-0.68583-1.5241-1.5241-1.5241z" />
    <path
       id="path2110"
       d="m91.465 9.2202c-0.042335-0.80436-0.70276-1.4394-1.5241-1.4394h-0.67736c-0.83823 0-1.5241 0.67736-1.5241 1.5241v1.2616c0 0.83823 0.68583 1.5325 1.5241 1.5325h0.67736c0.8467 0 1.5241-0.69429 1.5241-1.5325v-0.08467h-0.8467v0.08467c0 0.37255-0.30481 0.67736-0.67736 0.67736h-0.67736c-0.37255 0-0.67736-0.30481-0.67736-0.67736v-0.43182h2.8788v-0.7451zm-0.8467 0.23708h-2.0321v-0.15241c0-0.37255 0.29634-0.67736 0.67736-0.67736h0.67736c0.38102 0 0.67736 0.29634 0.67736 0.67736z" />
    <path
       id="path2112"
       d="m14.634 23.537v-0.85517h-0.8467c-0.37255 0-0.67736-0.30481-0.67736-0.67736v-4.5722c0-0.37255 0.29634-0.67736 0.67736-0.67736h0.8467v-0.8467h-0.8467c-0.83823 0-1.5241 0.67736-1.5241 1.5241v4.5722c0 0.83823 0.68583 1.5325 1.5241 1.5325z" />
    <path
       id="path2114"
       d="m19.584 17.517h0.80436v-0.8467h-0.80436c-0.8467 0-1.5241 0.67736-1.5241 1.5241v0.42335h-1.3971v0.8467h1.3971v3.2175h0.8467v-3.2175h1.4817v-0.8467h-1.4817v-0.42335c0-0.38102 0.29634-0.67736 0.67736-0.67736z" />
    <path
       id="path2116"
       d="m23.941 22.682c0.8467 0 1.5241-0.66889 1.5241-1.5156v-1.2785c0-0.8467-0.67736-1.5241-1.5241-1.5241h-0.67736c-0.8467 0-1.5241 0.67736-1.5241 1.5241v1.2785c0 0.8467 0.67736 1.5156 1.5241 1.5156zm0-0.8467h-0.67736c-0.38102-0.0085-0.67736-0.28788-0.67736-0.66889v-1.2785c0-0.38102 0.29634-0.67736 0.67736-0.67736h0.67736c0.38102 0 0.67736 0.29634 0.67736 0.67736v1.2785c0 0.38102-0.29634 0.66889-0.67736 0.66889z" />
    <path
       id="path2118"
       d="m29.061 21.835v-5.1649h-2.2438v0.8467h1.3971v4.3182h-1.3971v0.8467h3.7255v-0.8467z" />
    <path
       id="path2120"
       d="m34.773 16.67v2.1676l-0.70276-0.47415h-0.65196c-0.83823 0-1.5241 0.67736-1.5241 1.5241v1.27c0 0.83823 0.68583 1.5241 1.5241 1.5241h0.65196l0.70276-0.47415v0.47415h0.8467v-6.0116zm-0.96524 5.1649h-0.38948c-0.37255 0-0.67736-0.30481-0.67736-0.67736v-1.27c0-0.37255 0.30481-0.67736 0.67736-0.67736h0.38948l0.96524 0.65196v1.3209z" />
    <path
       id="path2122"
       d="m44.249 18.364h-0.65196l-0.70276 0.47415v-2.1676h-0.8467v6.0116h0.8467v-0.47415l0.70276 0.47415h0.65196c0.83823 0 1.5241-0.68583 1.5241-1.5241v-1.27c0-0.8467-0.68583-1.5241-1.5241-1.5241zm0.67736 2.7941c0 0.37255-0.30481 0.67736-0.67736 0.67736h-0.38948l-0.96524-0.65196v-1.3209l0.96524-0.65196h0.38948c0.37255 0 0.67736 0.30481 0.67736 0.67736z" />
    <path
       id="path2124"
       d="m50.003 18.364v2.8195l-0.96524 0.65196h-0.38948c-0.37255 0-0.67736-0.30481-0.67736-0.67736v-2.7941h-0.8467v2.7941c0 0.8467 0.68583 1.5241 1.5241 1.5241h0.65196l0.70276-0.47415v0.47415h0.8467v-4.3182z" />
    <path
       id="path2126"
       d="m54.445 16.755h-0.93137v0.8467h0.93137zm0 5.0802v-3.4715h-2.2438v0.8467h1.3971v2.6248h-1.3971v0.8467h3.7255v-0.8467z" />
    <path
       id="path2128"
       d="m59.522 21.835v-5.1649h-2.2438v0.8467h1.3971v4.3182h-1.3971v0.8467h3.7255v-0.8467z" />
    <path
       id="path2130"
       d="m65.234 16.67v2.1676l-0.70276-0.47415h-0.65196c-0.83823 0-1.5241 0.67736-1.5241 1.5241v1.27c0 0.83823 0.68583 1.5241 1.5241 1.5241h0.65196l0.70276-0.47415v0.47415h0.8467v-6.0116zm-0.96524 5.1649h-0.38948c-0.37255 0-0.67736-0.30481-0.67736-0.67736v-1.27c0-0.37255 0.30481-0.67736 0.67736-0.67736h0.38948l0.96524 0.65196v1.3209z" />
    <path
       id="path2132"
       d="m73.948 16.67v0.85517l0.16934 0.9229h0.50802l0.16934-0.9229v-0.85517z" />
    <path
       id="path2134"
       d="m80.634 23.537v-0.85517h-0.8467c-0.37255 0-0.67736-0.30481-0.67736-0.67736v-4.5722c0-0.37255 0.29634-0.67736 0.67736-0.67736h0.8467v-0.8467h-0.8467c-0.83823 0-1.5241 0.67736-1.5241 1.5241v4.5722c0 0.83823 0.68583 1.5325 1.5241 1.5325z" />
    <path
       id="path2136"
       d="m84.864 18.364h-0.65196l-0.70276 0.47415v-0.47415h-0.8467v6.0962h0.8467v-2.2522l0.70276 0.47415h0.65196c0.83823 0 1.5241-0.67736 1.5241-1.5241v-1.27c0-0.83823-0.68583-1.5241-1.5241-1.5241zm0.67736 2.7941c0 0.37255-0.30481 0.67736-0.67736 0.67736h-0.38948l-0.96524-0.65196v-1.3209l0.96524-0.65196h0.38948c0.37255 0 0.67736 0.30481 0.67736 0.67736z" />
    <path
       id="path2138"
       d="m89.941 18.364h-0.34715l-1.0076 0.67736v-0.67736h-0.8467v4.3182h0.8467v-2.6163l1.27-0.85517h0.08467c0.37255 0 0.67736 0.30481 0.67736 0.67736v0.33868h0.8467v-0.33868c0-0.8467-0.68583-1.5241-1.5241-1.5241z" />
    <path
       id="path2140"
       d="m95.018 22.682c0.8467 0 1.5241-0.66889 1.5241-1.5156v-1.2785c0-0.8467-0.67736-1.5241-1.5241-1.5241h-0.67736c-0.8467 0-1.5241 0.67736-1.5241 1.5241v1.2785c0 0.8467 0.67736 1.5156 1.5241 1.5156zm0-0.8467h-0.67736c-0.38102-0.0085-0.67736-0.28788-0.67736-0.66889v-1.2785c0-0.38102 0.29634-0.67736 0.67736-0.67736h0.67736c0.38102 0 0.67736 0.29634 0.67736 0.67736v1.2785c0 0.38102-0.29634 0.66889-0.67736 0.66889z" />
    <path
       id="path2142"
       d="m100.77 18.364v0.47415l-0.70276-0.47415h-0.65196c-0.83823 0-1.5241 0.67736-1.5241 1.5241v1.27c0 0.83823 0.68583 1.5241 1.5241 1.5241h0.65196l0.70276-0.47415v0.7197c0 0.37255-0.30481 0.67736-0.67736 0.67736h-0.67736c-0.37255 0-0.67736-0.30481-0.67736-0.67736h-0.8467c0 0.83823 0.68583 1.5325 1.5241 1.5325h0.67736c0.8467 0 1.5241-0.69429 1.5241-1.5325v-4.5637zm-0.96523 3.4715h-0.38948c-0.37255 0-0.67736-0.30481-0.67736-0.67736v-1.27c0-0.37255 0.30481-0.67736 0.67736-0.67736h0.38948l0.96523 0.65196v1.3209z" />
    <path
       id="path2144"
       d="m105.17 18.364h-0.34714l-1.0076 0.67736v-0.67736h-0.8467v4.3182h0.8467v-2.6163l1.27-0.85517h0.0847c0.37255 0 0.67736 0.30481 0.67736 0.67736v0.33868h0.8467v-0.33868c0-0.8467-0.68582-1.5241-1.5241-1.5241z" />
    <path
       id="path2146"
       d="m110.93 18.364v0.47415l-0.70276-0.47415h-0.65196c-0.83823 0-1.5241 0.67736-1.5241 1.5241v1.27c0 0.83823 0.68583 1.5241 1.5241 1.5241h0.65196l0.70276-0.47415v0.47415h0.8467v-4.3182zm-0.96524 3.4715h-0.38948c-0.37255 0-0.67736-0.30481-0.67736-0.67736v-1.27c0-0.37255 0.30481-0.67736 0.67736-0.67736h0.38948l0.96524 0.65196v1.3209z" />
    <path
       id="path2148"
       d="m115.99 18.364h-0.0677l-0.61809 0.60116c-0.16088-0.40642-0.47415-0.60116-0.92291-0.60116h-0.0677l-0.50802 0.49109v-0.49109h-0.8467v4.3182h0.8467v-2.6417l0.74509-0.71123c0.0169 0.09314 0.0169 0.22861 0.0169 0.38948v2.9634h0.8467v-2.6417l0.74509-0.71123c0.0169 0.09314 0.0169 0.22861 0.0169 0.38948v2.9634h0.8467v-2.9634c0-0.93137-0.36408-1.3547-1.033-1.3547zm-1.6511 0.71123h-0.0508zm1.6087 0h-0.0508z" />
    <path
       id="path2150"
       d="m121.06 18.364h-0.0677l-0.61809 0.60116c-0.16087-0.40642-0.47415-0.60116-0.9229-0.60116h-0.0677l-0.50802 0.49109v-0.49109h-0.8467v4.3182h0.8467v-2.6417l0.7451-0.71123c0.0169 0.09314 0.0169 0.22861 0.0169 0.38948v2.9634h0.8467v-2.6417l0.7451-0.71123c0.0169 0.09314 0.0169 0.22861 0.0169 0.38948v2.9634h0.8467v-2.9634c0-0.93137-0.36408-1.3547-1.033-1.3547zm-1.6511 0.71123h-0.0508zm1.6087 0h-0.0508z" />
    <path
       id="path2152"
       d="m126.16 18.364v0.47415l-0.70276-0.47415h-0.65196c-0.83823 0-1.5241 0.67736-1.5241 1.5241v1.27c0 0.83823 0.68583 1.5241 1.5241 1.5241h0.65196l0.70276-0.47415v0.47415h0.8467v-4.3182zm-0.96523 3.4715h-0.38949c-0.37254 0-0.67736-0.30481-0.67736-0.67736v-1.27c0-0.37255 0.30482-0.67736 0.67736-0.67736h0.38949l0.96523 0.65196v1.3209z" />
    <path
       id="path2154"
       d="m130.56 18.364h-0.65196l-0.70276 0.47415v-2.1676h-0.8467v6.0116h0.8467v-0.47415l0.70276 0.47415h0.65196c0.83824 0 1.5241-0.68583 1.5241-1.5241v-1.27c0-0.8467-0.68582-1.5241-1.5241-1.5241zm0.67736 2.7941c0 0.37255-0.30481 0.67736-0.67736 0.67736h-0.38948l-0.96524-0.65196v-1.3209l0.96524-0.65196h0.38948c0.37255 0 0.67736 0.30481 0.67736 0.67736z" />
    <path
       id="path2156"
       d="m135.68 21.835v-5.1649h-2.2438v0.8467h1.397v4.3182h-1.397v0.8467h3.7255v-0.8467z" />
    <path
       id="path2158"
       d="m142.23 19.803c-0.0423-0.80436-0.70276-1.4394-1.5241-1.4394h-0.67736c-0.83824 0-1.5241 0.67736-1.5241 1.5241v1.2616c0 0.83823 0.68582 1.5325 1.5241 1.5325h0.67736c0.8467 0 1.5241-0.69429 1.5241-1.5325v-0.08467h-0.8467v0.08467c0 0.37255-0.30482 0.67736-0.67736 0.67736h-0.67736c-0.37255 0-0.67736-0.30481-0.67736-0.67736v-0.43182h2.8788v-0.7451zm-0.8467 0.23708h-2.0321v-0.15241c0-0.37255 0.29634-0.67736 0.67736-0.67736h0.67736c0.38101 0 0.67736 0.29634 0.67736 0.67736z" />
    <path
       id="path2160"
       d="m84.864 28.948h-0.65196l-0.70276 0.47415v-0.47415h-0.8467v6.0962h0.8467v-2.2522l0.70276 0.47415h0.65196c0.83823 0 1.5241-0.67736 1.5241-1.5241v-1.27c0-0.83823-0.68583-1.5241-1.5241-1.5241zm0.67736 2.7941c0 0.37255-0.30481 0.67736-0.67736 0.67736h-0.38948l-0.96524-0.65196v-1.3209l0.96524-0.65196h0.38948c0.37255 0 0.67736 0.30481 0.67736 0.67736z" />
    <path
       id="path2162"
       d="m91.465 30.387c-0.04234-0.80436-0.70276-1.4394-1.5241-1.4394h-0.67736c-0.83823 0-1.5241 0.67736-1.5241 1.5241v1.2616c0 0.83823 0.68583 1.5325 1.5241 1.5325h0.67736c0.8467 0 1.5241-0.69429 1.5241-1.5325v-0.08467h-0.8467v0.08467c0 0.37255-0.30481 0.67736-0.67736 0.67736h-0.67736c-0.37255 0-0.67736-0.30481-0.67736-0.67736v-0.43182h2.8788v-0.7451zm-0.8467 0.23708h-2.0321v-0.15241c0-0.37255 0.29634-0.67736 0.67736-0.67736h0.67736c0.38102 0 0.67736 0.29634 0.67736 0.67736z" />
    <path
       id="path2164"
       d="m96.542 30.387c-0.04233-0.80436-0.70276-1.4394-1.5241-1.4394h-0.67736c-0.83823 0-1.5241 0.67736-1.5241 1.5241v1.2616c0 0.83823 0.68583 1.5325 1.5241 1.5325h0.67736c0.8467 0 1.5241-0.69429 1.5241-1.5325v-0.08467h-0.8467v0.08467c0 0.37255-0.30481 0.67736-0.67736 0.67736h-0.67736c-0.37255 0-0.67736-0.30481-0.67736-0.67736v-0.43182h2.8788v-0.7451zm-0.8467 0.23708h-2.0321v-0.15241c0-0.37255 0.29634-0.67736 0.67736-0.67736h0.67736c0.38102 0 0.67736 0.29634 0.67736 0.67736z" />
    <path
       id="path2166"
       d="m100.09 28.948h-0.34714l-1.0076 0.67736v-0.67736h-0.8467v4.3182h0.8467v-2.6163l1.27-0.85517h0.0847c0.37255 0 0.67736 0.30481 0.67736 0.67736v0.33868h0.8467v-0.33868c0-0.8467-0.68582-1.5241-1.5241-1.5241z" />
    <path
       id="path2168"
       d="m103.31 30.582v0.8467h3.0481v-0.8467z" />
    <path
       id="path2170"
       d="m111.77 29.795v-0.8467h-1.5664v-1.1007h-0.8467v1.1007h-1.3124v0.8467h1.3124v1.9474c0 0.8467 0.67736 1.5241 1.5241 1.5241h0.88904v-0.8467h-0.88904c-0.38101 0-0.67736-0.29634-0.67736-0.67736v-1.9474z" />
    <path
       id="path2172"
       d="m115.33 33.266c0.8467 0 1.5241-0.66889 1.5241-1.5156v-1.2785c0-0.8467-0.67736-1.5241-1.5241-1.5241h-0.67736c-0.8467 0-1.5241 0.67736-1.5241 1.5241v1.2785c0 0.8467 0.67736 1.5156 1.5241 1.5156zm0-0.8467h-0.67736c-0.38102-0.0085-0.67736-0.28788-0.67736-0.66889v-1.2785c0-0.38102 0.29634-0.67736 0.67736-0.67736h0.67736c0.38101 0 0.67736 0.29634 0.67736 0.67736v1.2785c0 0.38102-0.29635 0.66889-0.67736 0.66889z" />
    <path
       id="path2174"
       d="m118.54 30.582v0.8467h3.0481v-0.8467z" />
    <path
       id="path2176"
       d="m125.48 28.948h-0.65196l-0.70276 0.47415v-0.47415h-0.8467v6.0962h0.8467v-2.2522l0.70276 0.47415h0.65196c0.83824 0 1.5241-0.67736 1.5241-1.5241v-1.27c0-0.83823-0.68582-1.5241-1.5241-1.5241zm0.67736 2.7941c0 0.37255-0.30481 0.67736-0.67736 0.67736h-0.38948l-0.96524-0.65196v-1.3209l0.96524-0.65196h0.38948c0.37255 0 0.67736 0.30481 0.67736 0.67736z" />
    <path
       id="path2178"
       d="m132.08 30.387c-0.0423-0.80436-0.70276-1.4394-1.5241-1.4394h-0.67736c-0.83823 0-1.5241 0.67736-1.5241 1.5241v1.2616c0 0.83823 0.68583 1.5325 1.5241 1.5325h0.67736c0.8467 0 1.5241-0.69429 1.5241-1.5325v-0.08467h-0.8467v0.08467c0 0.37255-0.30481 0.67736-0.67736 0.67736h-0.67736c-0.37255 0-0.67736-0.30481-0.67736-0.67736v-0.43182h2.8788v-0.7451zm-0.8467 0.23708h-2.0321v-0.15241c0-0.37255 0.29635-0.67736 0.67736-0.67736h0.67736c0.38102 0 0.67736 0.29634 0.67736 0.67736z" />
    <path
       id="path2180"
       d="m137.16 30.387c-0.0423-0.80436-0.70276-1.4394-1.5241-1.4394h-0.67736c-0.83823 0-1.5241 0.67736-1.5241 1.5241v1.2616c0 0.83823 0.68583 1.5325 1.5241 1.5325h0.67736c0.8467 0 1.5241-0.69429 1.5241-1.5325v-0.08467h-0.8467v0.08467c0 0.37255-0.30481 0.67736-0.67736 0.67736h-0.67736c-0.37255 0-0.67736-0.30481-0.67736-0.67736v-0.43182h2.8788v-0.7451zm-0.8467 0.23708h-2.0321v-0.15241c0-0.37255 0.29634-0.67736 0.67736-0.67736h0.67736c0.38101 0 0.67736 0.29634 0.67736 0.67736z" />
    <path
       id="path2182"
       d="m140.71 28.948h-0.34715l-1.0076 0.67736v-0.67736h-0.8467v4.3182h0.8467v-2.6163l1.27-0.85517h0.0847c0.37254 0 0.67736 0.30481 0.67736 0.67736v0.33868h0.8467v-0.33868c0-0.8467-0.68583-1.5241-1.5241-1.5241z" />
    <path
       id="path2184"
       d="m84.864 39.531h-0.65196l-0.70276 0.47415v-0.47415h-0.8467v6.0962h0.8467v-2.2522l0.70276 0.47415h0.65196c0.83823 0 1.5241-0.67736 1.5241-1.5241v-1.27c0-0.83823-0.68583-1.5241-1.5241-1.5241zm0.67736 2.7941c0 0.37255-0.30481 0.67736-0.67736 0.67736h-0.38948l-0.96524-0.65196v-1.3209l0.96524-0.65196h0.38948c0.37255 0 0.67736 0.30481 0.67736 0.67736z" />
    <path
       id="path2186"
       d="m89.941 39.531h-0.34715l-1.0076 0.67736v-0.67736h-0.8467v4.3182h0.8467v-2.6163l1.27-0.85517h0.08467c0.37255 0 0.67736 0.30481 0.67736 0.67736v0.33868h0.8467v-0.33868c0-0.8467-0.68583-1.5241-1.5241-1.5241z" />
    <path
       id="path2188"
       d="m95.06 37.922h-0.93137v0.8467h0.93137zm0 5.0802v-3.4715h-2.2438v0.8467h1.3971v2.6248h-1.3971v0.8467h3.7255v-0.8467z" />
    <path
       id="path2190"
       d="m100.77 39.531v1.7103l-1.0076 1.6595h-0.01693l-1.0076-1.6595v-1.7103h-0.8467v1.9474l1.4394 2.3708h0.8467l1.4394-2.3708v-1.9474z" />
    <path
       id="path2192"
       d="m105.85 39.531v0.47415l-0.70276-0.47415h-0.65196c-0.83823 0-1.5241 0.67736-1.5241 1.5241v1.27c0 0.83823 0.68583 1.5241 1.5241 1.5241h0.65196l0.70276-0.47415v0.47415h0.8467v-4.3182zm-0.96524 3.4715h-0.38948c-0.37255 0-0.67736-0.30481-0.67736-0.67736v-1.27c0-0.37255 0.30481-0.67736 0.67736-0.67736h0.38948l0.96524 0.65196v1.3209z" />
    <path
       id="path2194"
       d="m111.77 40.378v-0.8467h-1.5664v-1.1007h-0.8467v1.1007h-1.3124v0.8467h1.3124v1.9474c0 0.8467 0.67736 1.5241 1.5241 1.5241h0.88904v-0.8467h-0.88904c-0.38101 0-0.67736-0.29634-0.67736-0.67736v-1.9474z" />
    <path
       id="path2196"
       d="m116.85 40.97c-0.0423-0.80436-0.70276-1.4394-1.5241-1.4394h-0.67736c-0.83823 0-1.5241 0.67736-1.5241 1.5241v1.2616c0 0.83823 0.68583 1.5325 1.5241 1.5325h0.67736c0.8467 0 1.5241-0.69429 1.5241-1.5325v-0.08467h-0.8467v0.08467c0 0.37255-0.30481 0.67736-0.67736 0.67736h-0.67736c-0.37255 0-0.67736-0.30481-0.67736-0.67736v-0.43182h2.8788v-0.7451zm-0.8467 0.23708h-2.0321v-0.15241c0-0.37255 0.29634-0.67736 0.67736-0.67736h0.67736c0.38101 0 0.67736 0.29634 0.67736 0.67736z" />
    <path
       id="path2198"
       d="m85.584 49.267h0.80436v-0.8467h-0.80436c-0.8467 0-1.5241 0.67736-1.5241 1.5241v0.42335h-1.3971v0.8467h1.3971v3.2175h0.8467v-3.2175h1.4817v-0.8467h-1.4817v-0.42335c0-0.38102 0.29634-0.67736 0.67736-0.67736z" />
    <path
       id="path2200"
       d="m90.618 50.114v0.47415l-0.70276-0.47415h-0.65196c-0.83823 0-1.5241 0.67736-1.5241 1.5241v1.27c0 0.83823 0.68583 1.5241 1.5241 1.5241h0.65196l0.70276-0.47415v0.47415h0.8467v-4.3182zm-0.96524 3.4715h-0.38948c-0.37255 0-0.67736-0.30481-0.67736-0.67736v-1.27c0-0.37255 0.30481-0.67736 0.67736-0.67736h0.38948l0.96524 0.65196v1.3209z" />
    <path
       id="path2202"
       d="m92.817 53.01v0.16934c0 0.7197 0.60962 1.2531 1.4309 1.2531h0.85517c0.85517 0 1.4394-0.48262 1.4394-1.1938 0-1.7273-2.8195-1.2955-2.8195-1.9813 0-0.17781 0.15241-0.29634 0.50802-0.29634h0.81283c0.29634 0 0.50802 0.17781 0.50802 0.41488v0.0762h0.8467v-0.0762c0-0.71123-0.59269-1.2616-1.3547-1.2616h-0.81283c-0.80436 0-1.3547 0.45722-1.3547 1.143 0 1.6426 2.8195 1.0245 2.8195 1.9813 0 0.21168-0.19474 0.34715-0.59269 0.34715h-0.85517c-0.36408 0-0.58422-0.16934-0.58422-0.40642v-0.16934z" />
    <path
       id="path2204"
       d="m101.62 50.961v-0.8467h-1.5664v-1.1007h-0.8467v1.1007h-1.3124v0.8467h1.3124v1.9474c0 0.8467 0.67736 1.5241 1.5241 1.5241h0.88903v-0.8467h-0.88903c-0.38102 0-0.67736-0.29634-0.67736-0.67736v-1.9474z" />
    <path
       id="path2206"
       d="m85.542 62.348v0.08467h0.8467v-0.08467c0-0.8467-0.67736-1.5241-1.5241-1.5241h-0.67736c-0.83823 0-1.5241 0.67736-1.5241 1.5241v1.2616c0 0.83823 0.68583 1.5325 1.5241 1.5325h0.67736c0.8467 0 1.5241-0.69429 1.5241-1.5325v-0.08467h-0.8467v0.08467c0 0.37255-0.30481 0.67736-0.67736 0.67736h-0.67736c-0.37255 0-0.67736-0.30481-0.67736-0.67736v-1.2616c0-0.37255 0.29634-0.67736 0.67736-0.67736h0.67736c0.38102 0 0.67736 0.29634 0.67736 0.67736z" />
    <path
       id="path2208"
       d="m90.618 60.824v2.8195l-0.96524 0.65196h-0.38948c-0.37255 0-0.67736-0.30481-0.67736-0.67736v-2.7941h-0.8467v2.7941c0 0.8467 0.68583 1.5241 1.5241 1.5241h0.65196l0.70276-0.47415v0.47415h0.8467v-4.3182z" />
    <path
       id="path2210"
       d="m96.542 61.671v-0.8467h-1.5664v-1.1007h-0.8467v1.1007h-1.3124v0.8467h1.3124v1.9474c0 0.8467 0.67736 1.5241 1.5241 1.5241h0.88904v-0.8467h-0.88904c-0.38102 0-0.67736-0.29634-0.67736-0.67736v-1.9474z" />
    <path
       id="path2212"
       d="m101.62 62.263c-0.0423-0.80436-0.70276-1.4394-1.5241-1.4394h-0.67736c-0.83823 0-1.5241 0.67736-1.5241 1.5241v1.2616c0 0.83823 0.68583 1.5325 1.5241 1.5325h0.67736c0.8467 0 1.5241-0.69429 1.5241-1.5325v-0.08467h-0.8467v0.08467c0 0.37255-0.30481 0.67736-0.67736 0.67736h-0.67736c-0.37255 0-0.67736-0.30481-0.67736-0.67736v-0.43182h2.8788v-0.7451zm-0.8467 0.23708h-2.0321v-0.15241c0-0.37255 0.29634-0.67736 0.67736-0.67736h0.67736c0.38102 0 0.67736 0.29634 0.67736 0.67736z" />
    <path
       id="path2214"
       d="m103.65 65.997h0.8467c0.83824 0 1.5241-0.69429 1.5241-1.5325v-4.5722c0-0.8467-0.68582-1.5241-1.5241-1.5241h-0.8467v0.8467h0.8467c0.38102 0 0.67736 0.30481 0.67736 0.67736v4.5722c0 0.37255-0.30481 0.67736-0.67736 0.67736h-0.8467z" />
    <path
       id="path2216"
       d="m108.72 65.997h0.8467c0.83823 0 1.5241-0.69429 1.5241-1.5325v-4.5722c0-0.8467-0.68583-1.5241-1.5241-1.5241h-0.8467v0.8467h0.8467c0.38101 0 0.67736 0.30481 0.67736 0.67736v4.5722c0 0.37255-0.30481 0.67736-0.67736 0.67736h-0.8467z" />
    <path
       id="path2218"
       d="m113.8 65.997h0.8467c0.83823 0 1.5241-0.69429 1.5241-1.5325v-4.5722c0-0.8467-0.68583-1.5241-1.5241-1.5241h-0.8467v0.8467h0.8467c0.38101 0 0.67736 0.30481 0.67736 0.67736v4.5722c0 0.37255-0.30481 0.67736-0.67736 0.67736h-0.8467z" />
  </g>
</svg>
