<?xml version="1.0" encoding="UTF-8" standalone="no"?>
<svg
   xmlns:dc="http://purl.org/dc/elements/1.1/"
   xmlns:cc="http://creativecommons.org/ns#"
   xmlns:rdf="http://www.w3.org/1999/02/22-rdf-syntax-ns#"
   xmlns:svg="http://www.w3.org/2000/svg"
   xmlns="http://www.w3.org/2000/svg"
   xmlns:sodipodi="http://sodipodi.sourceforge.net/DTD/sodipodi-0.dtd"
   xmlns:inkscape="http://www.inkscape.org/namespaces/inkscape"
   width="793.7"
   height="1122.5"
   version="1.1"
   viewBox="0 0 210 297"
   id="svg2222"
   sodipodi:docname="banner.svg"
   inkscape:version="1.0 (4035a4f, 2020-05-01)">
  <sodipodi:namedview
     inkscape:snap-global="false"
     inkscape:snap-nodes="false"
     inkscape:object-nodes="false"
     inkscape:snap-others="false"
     inkscape:document-rotation="0"
     pagecolor="#ffffff"
     bordercolor="#666666"
     borderopacity="1"
     objecttolerance="10"
     gridtolerance="10"
     guidetolerance="10"
     inkscape:pageopacity="0"
     inkscape:pageshadow="2"
     inkscape:window-width="1280"
     inkscape:window-height="800"
     id="namedview2224"
     showgrid="false"
     inkscape:zoom="0.7092572"
     inkscape:cx="266.39436"
     inkscape:cy="366.35723"
     inkscape:window-x="0"
     inkscape:window-y="0"
     inkscape:window-maximized="0"
     inkscape:current-layer="g2220" />
  <metadata
     id="metadata2062">
    <rdf:RDF>
      <cc:Work
         rdf:about="">
        <dc:format>image/svg+xml</dc:format>
        <dc:type
           rdf:resource="http://purl.org/dc/dcmitype/StillImage" />
        <dc:title></dc:title>
      </cc:Work>
    </rdf:RDF>
  </metadata>
  <style
     id="style2064"><![CDATA[.B{font-size:8.467px}.C{font-weight:400}.D{fill-rule:evenodd}.E{stroke-width:.625}.F{stroke-linejoin:round}]]>@font-face {font-family: 'Bagnard';src: url('/static/BagnardSans.otf');}</style>
  <defs
     id="defs2072">
    <rect
       id="rect930"
       height="13.156562"
       width="70.982236"
       y="35.391151"
       x="80.973756" />
    <marker
       id="c"
       overflow="visible"
       orient="auto">
      <path
         class="D E F"
         transform="scale(.6)"
         d="M8.72 4.034L-2.207.016 8.72-4.002c-1.745 2.372-1.735 5.617 0 8.035z"
         stroke="#000"
         id="path2066" />
    </marker>
    <marker
       id="d"
       overflow="visible"
       orient="auto">
      <path
         class="D E F"
         transform="scale(-.6)"
         d="M8.72 4.034L-2.207.016 8.72-4.002c-1.745 2.372-1.735 5.617 0 8.035z"
         stroke="#000"
         id="path2069" />
    </marker>
  </defs>
  <g
     transform="matrix(.97761 0 0 .98592 2.6139 2.0937)"
     fill="none"
     id="g2078">
    <path
       d="M 152.146,0 H 210 V 57.854 M 57.854,297 H 0 v -57.854"
       stroke="#16003a"
       stroke-linejoin="bevel"
       stroke-width="4.3728"
       id="path2074" />
    <path
       d="m182.15 27.854-154.29 241.29"
       marker-end="url(#d)"
       marker-start="url(#c)"
       stroke="#000"
       stroke-miterlimit="3.9"
       stroke-width="2.8459"
       id="path2076" />
  </g>
  <g
     class="B"
     transform="scale(.94618 1.0569)"
     fill="#16003a"
     aria-label="(def new-software (fold build '(programmable               peer-to-peer               private               fast               cute)))"
     id="g2220">
    <path
       d="m 84.630441,41.568196 v -5.164712 h -2.243686 v 0.846674 h 1.397012 v 4.318038 h -1.397012 v 0.846673 h 1.397012 2.328353 v -0.846673 z"
       style="font-style:normal;font-variant:normal;font-weight:normal;font-stretch:normal;font-size:8.46674px;line-height:1.25;font-family:Supply;-inkscape-font-specification:'Supply, Normal';font-variant-ligatures:normal;font-variant-caps:normal;font-variant-numeric:normal;font-variant-east-asian:normal;white-space:pre;fill:#000000;fill-opacity:1;stroke:none;stroke-width:1.00001;stroke-miterlimit:4;stroke-dasharray:none"
       id="path934" />
    <path
       d="m 89.664843,42.414869 c 0.846674,0 1.524013,-0.668872 1.524013,-1.515546 v -1.278478 c 0,-0.846674 -0.677339,-1.524013 -1.524013,-1.524013 h -0.677339 c -0.846674,0 -1.524013,0.677339 -1.524013,1.524013 v 1.278478 c 0,0.846674 0.677339,1.515546 1.524013,1.515546 z m 0,-0.846673 h -0.677339 c -0.381003,-0.0085 -0.677339,-0.28787 -0.677339,-0.668873 v -1.278478 c 0,-0.381003 0.296336,-0.677339 0.677339,-0.677339 h 0.677339 c 0.381004,0 0.677339,0.296336 0.677339,0.677339 v 1.278478 c 0,0.381003 -0.296335,0.668873 -0.677339,0.668873 z"
       style="font-style:normal;font-variant:normal;font-weight:normal;font-stretch:normal;font-size:8.46674px;line-height:1.25;font-family:Supply;-inkscape-font-specification:'Supply, Normal';font-variant-ligatures:normal;font-variant-caps:normal;font-variant-numeric:normal;font-variant-east-asian:normal;white-space:pre;fill:#000000;fill-opacity:1;stroke:none;stroke-width:1.00001;stroke-miterlimit:4;stroke-dasharray:none"
       id="path936" />
    <path
       d="m 95.418919,39.620845 v 0.08467 h 0.846674 v -0.08467 c 0,-0.846674 -0.677339,-1.524013 -1.524013,-1.524013 h -0.677339 c -0.838208,0 -1.524014,0.677339 -1.524014,1.524013 v 1.261545 c 0,0.838207 0.685806,1.532479 1.524014,1.532479 h 0.677339 c 0.846674,0 1.524013,-0.694272 1.524013,-1.532479 v -0.08467 h -0.846674 v 0.08467 c 0,0.372536 -0.304803,0.677339 -0.677339,0.677339 h -0.677339 c -0.372537,0 -0.67734,-0.304803 -0.67734,-0.677339 v -1.261545 c 0,-0.372536 0.296336,-0.677339 0.67734,-0.677339 h 0.677339 c 0.381003,0 0.677339,0.296336 0.677339,0.677339 z"
       style="font-style:normal;font-variant:normal;font-weight:normal;font-stretch:normal;font-size:8.46674px;line-height:1.25;font-family:Supply;-inkscape-font-specification:'Supply, Normal';font-variant-ligatures:normal;font-variant-caps:normal;font-variant-numeric:normal;font-variant-east-asian:normal;white-space:pre;fill:#000000;fill-opacity:1;stroke:none;stroke-width:1.00001;stroke-miterlimit:4;stroke-dasharray:none"
       id="path938" />
    <path
       d="m 100.49565,38.096832 v 0.474138 l -0.702734,-0.474138 h -0.651939 c -0.838207,0 -1.524013,0.677339 -1.524013,1.524013 v 1.270011 c 0,0.838208 0.685806,1.524013 1.524013,1.524013 h 0.651939 l 0.702734,-0.474137 v 0.474137 h 0.84668 v -4.318037 z m -0.965203,3.471364 h -0.38947 c -0.372537,0 -0.677339,-0.304803 -0.677339,-0.67734 v -1.270011 c 0,-0.372536 0.304802,-0.677339 0.677339,-0.677339 h 0.38947 l 0.965203,0.651939 v 1.320812 z"
       style="font-style:normal;font-variant:normal;font-weight:normal;font-stretch:normal;font-size:8.46674px;line-height:1.25;font-family:Supply;-inkscape-font-specification:'Supply, Normal';font-variant-ligatures:normal;font-variant-caps:normal;font-variant-numeric:normal;font-variant-east-asian:normal;white-space:pre;fill:#000000;fill-opacity:1;stroke:none;stroke-width:1.00001;stroke-miterlimit:4;stroke-dasharray:none"
       id="path940" />
    <path
       d="m 104.93739,41.568196 v -5.164712 h -2.24369 v 0.846674 h 1.39702 v 4.318038 h -1.39702 v 0.846673 h 1.39702 2.32835 v -0.846673 z"
       style="font-style:normal;font-variant:normal;font-weight:normal;font-stretch:normal;font-size:8.46674px;line-height:1.25;font-family:Supply;-inkscape-font-specification:'Supply, Normal';font-variant-ligatures:normal;font-variant-caps:normal;font-variant-numeric:normal;font-variant-east-asian:normal;white-space:pre;fill:#000000;fill-opacity:1;stroke:none;stroke-width:1.00001;stroke-miterlimit:4;stroke-dasharray:none"
       id="path942" />
    <path
       d="m 108.10911,39.730913 v 0.846674 h 3.04803 v -0.846674 z"
       style="font-style:normal;font-variant:normal;font-weight:normal;font-stretch:normal;font-size:8.46674px;line-height:1.25;font-family:Supply;-inkscape-font-specification:'Supply, Normal';font-variant-ligatures:normal;font-variant-caps:normal;font-variant-numeric:normal;font-variant-east-asian:normal;white-space:pre;fill:#000000;fill-opacity:1;stroke:none;stroke-width:1.00001;stroke-miterlimit:4;stroke-dasharray:none"
       id="path944" />
    <path
       d="m 115.7682,37.250158 h 0.80434 v -0.846674 h -0.80434 c -0.84667,0 -1.52401,0.677339 -1.52401,1.524013 v 0.423337 h -1.39701 v 0.846674 h 1.39701 v 3.217361 h 0.84667 v -3.217361 h 1.48168 v -0.846674 h -1.48168 v -0.423337 c 0,-0.381003 0.29634,-0.677339 0.67734,-0.677339 z"
       style="font-style:normal;font-variant:normal;font-weight:normal;font-stretch:normal;font-size:8.46674px;line-height:1.25;font-family:Supply;-inkscape-font-specification:'Supply, Normal';font-variant-ligatures:normal;font-variant-caps:normal;font-variant-numeric:normal;font-variant-east-asian:normal;white-space:pre;fill:#000000;fill-opacity:1;stroke:none;stroke-width:1.00001;stroke-miterlimit:4;stroke-dasharray:none"
       id="path946" />
    <path
       d="m 120.1676,36.488152 h -0.93134 v 0.846674 h 0.93134 z m 0,5.080044 v -3.471364 h -2.24369 v 0.846674 h 1.39702 v 2.62469 h -1.39702 v 0.846673 h 1.39702 2.32835 v -0.846673 z"
       style="font-style:normal;font-variant:normal;font-weight:normal;font-stretch:normal;font-size:8.46674px;line-height:1.25;font-family:Supply;-inkscape-font-specification:'Supply, Normal';font-variant-ligatures:normal;font-variant-caps:normal;font-variant-numeric:normal;font-variant-east-asian:normal;white-space:pre;fill:#000000;fill-opacity:1;stroke:none;stroke-width:1.00001;stroke-miterlimit:4;stroke-dasharray:none"
       id="path948" />
    <path
       d="m 125.202,38.096832 h -0.34713 l -1.00755,0.677339 v -0.677339 h -0.84667 v 4.318037 h 0.84667 v -2.616222 l 1.27002,-0.855141 h 0.0847 c 0.37254,0 0.67734,0.304803 0.67734,0.677339 v 0.33867 h 0.84668 v -0.33867 c 0,-0.846674 -0.68581,-1.524013 -1.52402,-1.524013 z"
       style="font-style:normal;font-variant:normal;font-weight:normal;font-stretch:normal;font-size:8.46674px;line-height:1.25;font-family:Supply;-inkscape-font-specification:'Supply, Normal';font-variant-ligatures:normal;font-variant-caps:normal;font-variant-numeric:normal;font-variant-east-asian:normal;white-space:pre;fill:#000000;fill-opacity:1;stroke:none;stroke-width:1.00001;stroke-miterlimit:4;stroke-dasharray:none"
       id="path950" />
    <path
       d="m 128.07739,40.992457 v 0.169335 c 0,0.719673 0.6096,1.253077 1.43088,1.253077 h 0.85514 c 0.85514,0 1.43934,-0.482604 1.43934,-1.19381 0,-1.727215 -2.81942,-1.295411 -2.81942,-1.981217 0,-0.177801 0.1524,-0.296336 0.508,-0.296336 h 0.81281 c 0.29634,0 0.508,0.177802 0.508,0.41487 v 0.0762 h 0.84668 v -0.0762 c 0,-0.711206 -0.59267,-1.261544 -1.35468,-1.261544 h -0.81281 c -0.80434,0 -1.35468,0.457204 -1.35468,1.14301 0,1.642548 2.81943,1.024476 2.81943,1.981217 0,0.211669 -0.19474,0.347137 -0.59267,0.347137 h -0.85514 c -0.36407,0 -0.58421,-0.169335 -0.58421,-0.406404 v -0.169335 z"
       style="font-style:normal;font-variant:normal;font-weight:normal;font-stretch:normal;font-size:8.46674px;line-height:1.25;font-family:Supply;-inkscape-font-specification:'Supply, Normal';font-variant-ligatures:normal;font-variant-caps:normal;font-variant-numeric:normal;font-variant-east-asian:normal;white-space:pre;fill:#000000;fill-opacity:1;stroke:none;stroke-width:1.00001;stroke-miterlimit:4;stroke-dasharray:none"
       id="path952" />
    <path
       d="m 136.87949,38.943506 v -0.846674 h -1.56635 v -1.100676 h -0.84667 v 1.100676 h -1.31235 v 0.846674 h 1.31235 v 1.94735 c 0,0.846674 0.67734,1.524013 1.52401,1.524013 h 0.88901 v -0.846673 h -0.88901 c -0.381,0 -0.67734,-0.296336 -0.67734,-0.67734 v -1.94735 z"
       style="font-style:normal;font-variant:normal;font-weight:normal;font-stretch:normal;font-size:8.46674px;line-height:1.25;font-family:Supply;-inkscape-font-specification:'Supply, Normal';font-variant-ligatures:normal;font-variant-caps:normal;font-variant-numeric:normal;font-variant-east-asian:normal;white-space:pre;fill:#000000;fill-opacity:1;stroke:none;stroke-width:1.00001;stroke-miterlimit:4;stroke-dasharray:none"
       id="path954" />
    <path
       d="m9.5575 12.954v-0.85517h-0.8467c-0.37255 0-0.67736-0.30481-0.67736-0.67736v-4.5722c0-0.37255 0.29634-0.67736 0.67736-0.67736h0.8467v-0.8467h-0.8467c-0.83823 0-1.5241 0.67736-1.5241 1.5241v4.5722c0 0.83823 0.68583 1.5325 1.5241 1.5325z"
       id="path2080" />
    <path
       d="m14.465 6.0874v2.1676l-0.70276-0.47415h-0.65196c-0.83823 0-1.5241 0.67736-1.5241 1.5241v1.27c0 0.83823 0.68583 1.5241 1.5241 1.5241h0.65196l0.70276-0.47415v0.47415h0.8467v-6.0116zm-0.96524 5.1649h-0.38948c-0.37255 0-0.67736-0.30481-0.67736-0.67736v-1.27c0-0.37255 0.30481-0.67736 0.67736-0.67736h0.38948l0.96524 0.65196v1.3209z"
       id="path2082" />
    <path
       d="m20.389 9.2202c-0.042335-0.80436-0.70276-1.4394-1.5241-1.4394h-0.67736c-0.83823 0-1.5241 0.67736-1.5241 1.5241v1.2616c0 0.83823 0.68583 1.5325 1.5241 1.5325h0.67736c0.8467 0 1.5241-0.69429 1.5241-1.5325v-0.08467h-0.8467v0.08467c0 0.37255-0.30481 0.67736-0.67736 0.67736h-0.67736c-0.37255 0-0.67736-0.30481-0.67736-0.67736v-0.43182h2.8788v-0.7451zm-0.8467 0.23708h-2.0321v-0.15241c0-0.37255 0.29634-0.67736 0.67736-0.67736h0.67736c0.38102 0 0.67736 0.29634 0.67736 0.67736z"
       id="path2084" />
    <path
       d="m24.661 6.9341h0.80436v-0.8467h-0.80436c-0.8467 0-1.5241 0.67736-1.5241 1.5241v0.42335h-1.3971v0.8467h1.3971v3.2175h0.8467v-3.2175h1.4817v-0.8467h-1.4817v-0.42335c0-0.38102 0.29634-0.67736 0.67736-0.67736z"
       id="path2086" />
    <path
       d="m34.095 7.7808h-0.65196l-0.70276 0.47415v-0.47415h-0.8467v4.3182h0.8467v-2.8195l0.96524-0.65196h0.38948c0.37255 0 0.67736 0.30481 0.67736 0.67736v2.7941h0.8467v-2.7941c0-0.8467-0.68583-1.5241-1.5241-1.5241z"
       id="path2088" />
    <path
       d="m40.696 9.2202c-0.042335-0.80436-0.70276-1.4394-1.5241-1.4394h-0.67736c-0.83823 0-1.5241 0.67736-1.5241 1.5241v1.2616c0 0.83823 0.68583 1.5325 1.5241 1.5325h0.67736c0.8467 0 1.5241-0.69429 1.5241-1.5325v-0.08467h-0.8467v0.08467c0 0.37255-0.30481 0.67736-0.67736 0.67736h-0.67736c-0.37255 0-0.67736-0.30481-0.67736-0.67736v-0.43182h2.8788v-0.7451zm-0.8467 0.23708h-2.0321v-0.15241c0-0.37255 0.29634-0.67736 0.67736-0.67736h0.67736c0.38102 0 0.67736 0.29634 0.67736 0.67736z"
       id="path2090" />
    <path
       d="m44.926 7.7808v1.6934l-0.15241 1.0245-0.51649-1.9559h-0.69429l-0.51649 1.9559-0.15241-1.0245v-1.6934h-0.8467v1.9474l0.50802 2.3708h0.67736l0.67736-2.0236 0.67736 2.0236h0.67736l0.50802-2.3708v-1.9474z"
       id="path2092" />
    <path
       d="m47.463 9.415v0.8467h3.0481v-0.8467z"
       id="path2094" />
    <path
       d="m52.201 10.677v0.16934c0 0.7197 0.60962 1.2531 1.4309 1.2531h0.85517c0.85517 0 1.4394-0.48262 1.4394-1.1938 0-1.7273-2.8195-1.2955-2.8195-1.9813 0-0.17781 0.15241-0.29634 0.50802-0.29634h0.81283c0.29634 0 0.50802 0.17781 0.50802 0.41488v0.076203h0.8467v-0.076203c0-0.71123-0.59269-1.2616-1.3547-1.2616h-0.81283c-0.80436 0-1.3547 0.45722-1.3547 1.143 0 1.6426 2.8195 1.0245 2.8195 1.9813 0 0.21168-0.19474 0.34715-0.59269 0.34715h-0.85517c-0.36408 0-0.58422-0.16934-0.58422-0.40642v-0.16934z"
       id="path2096" />
    <path
       d="m59.48 12.099c0.8467 0 1.5241-0.66889 1.5241-1.5156v-1.2785c0-0.8467-0.67736-1.5241-1.5241-1.5241h-0.67736c-0.8467 0-1.5241 0.67736-1.5241 1.5241v1.2785c0 0.8467 0.67736 1.5156 1.5241 1.5156zm0-0.8467h-0.67736c-0.38102-0.0085-0.67736-0.28788-0.67736-0.66889v-1.2785c0-0.38102 0.29634-0.67736 0.67736-0.67736h0.67736c0.38102 0 0.67736 0.29634 0.67736 0.67736v1.2785c0 0.38102-0.29634 0.66889-0.67736 0.66889z"
       id="path2098" />
    <path
       d="m65.276 6.9341h0.80436v-0.8467h-0.80436c-0.8467 0-1.5241 0.67736-1.5241 1.5241v0.42335h-1.3971v0.8467h1.3971v3.2175h0.8467v-3.2175h1.4817v-0.8467h-1.4817v-0.42335c0-0.38102 0.29634-0.67736 0.67736-0.67736z"
       id="path2100" />
    <path
       d="m71.158 8.6275v-0.8467h-1.5664v-1.1007h-0.8467v1.1007h-1.3124v0.8467h1.3124v1.9474c0 0.8467 0.67736 1.5241 1.5241 1.5241h0.88904v-0.8467h-0.88904c-0.38102 0-0.67736-0.29634-0.67736-0.67736v-1.9474z"
       id="path2102" />
    <path
       d="m75.388 7.7808v1.6934l-0.15241 1.0245-0.51649-1.9559h-0.69429l-0.51649 1.9559-0.15241-1.0245v-1.6934h-0.8467v1.9474l0.50802 2.3708h0.67736l0.67736-2.0236 0.67736 2.0236h0.67736l0.50802-2.3708v-1.9474z"
       id="path2104" />
    <path
       d="m80.465 7.7808v0.47415l-0.70276-0.47415h-0.65196c-0.83823 0-1.5241 0.67736-1.5241 1.5241v1.27c0 0.83823 0.68583 1.5241 1.5241 1.5241h0.65196l0.70276-0.47415v0.47415h0.8467v-4.3182zm-0.96524 3.4715h-0.38948c-0.37255 0-0.67736-0.30481-0.67736-0.67736v-1.27c0-0.37255 0.30481-0.67736 0.67736-0.67736h0.38948l0.96524 0.65196v1.3209z"
       id="path2106" />
    <path
       d="m84.864 7.7808h-0.34715l-1.0076 0.67736v-0.67736h-0.8467v4.3182h0.8467v-2.6163l1.27-0.85517h0.08467c0.37255 0 0.67736 0.30481 0.67736 0.67736v0.33868h0.8467v-0.33868c0-0.8467-0.68583-1.5241-1.5241-1.5241z"
       id="path2108" />
    <path
       d="m91.465 9.2202c-0.042335-0.80436-0.70276-1.4394-1.5241-1.4394h-0.67736c-0.83823 0-1.5241 0.67736-1.5241 1.5241v1.2616c0 0.83823 0.68583 1.5325 1.5241 1.5325h0.67736c0.8467 0 1.5241-0.69429 1.5241-1.5325v-0.08467h-0.8467v0.08467c0 0.37255-0.30481 0.67736-0.67736 0.67736h-0.67736c-0.37255 0-0.67736-0.30481-0.67736-0.67736v-0.43182h2.8788v-0.7451zm-0.8467 0.23708h-2.0321v-0.15241c0-0.37255 0.29634-0.67736 0.67736-0.67736h0.67736c0.38102 0 0.67736 0.29634 0.67736 0.67736z"
       id="path2110" />
    <path
       d="m14.634 23.537v-0.85517h-0.8467c-0.37255 0-0.67736-0.30481-0.67736-0.67736v-4.5722c0-0.37255 0.29634-0.67736 0.67736-0.67736h0.8467v-0.8467h-0.8467c-0.83823 0-1.5241 0.67736-1.5241 1.5241v4.5722c0 0.83823 0.68583 1.5325 1.5241 1.5325z"
       id="path2112" />
    <path
       d="m19.584 17.517h0.80436v-0.8467h-0.80436c-0.8467 0-1.5241 0.67736-1.5241 1.5241v0.42335h-1.3971v0.8467h1.3971v3.2175h0.8467v-3.2175h1.4817v-0.8467h-1.4817v-0.42335c0-0.38102 0.29634-0.67736 0.67736-0.67736z"
       id="path2114" />
    <path
       d="m23.941 22.682c0.8467 0 1.5241-0.66889 1.5241-1.5156v-1.2785c0-0.8467-0.67736-1.5241-1.5241-1.5241h-0.67736c-0.8467 0-1.5241 0.67736-1.5241 1.5241v1.2785c0 0.8467 0.67736 1.5156 1.5241 1.5156zm0-0.8467h-0.67736c-0.38102-0.0085-0.67736-0.28788-0.67736-0.66889v-1.2785c0-0.38102 0.29634-0.67736 0.67736-0.67736h0.67736c0.38102 0 0.67736 0.29634 0.67736 0.67736v1.2785c0 0.38102-0.29634 0.66889-0.67736 0.66889z"
       id="path2116" />
    <path
       d="m29.061 21.835v-5.1649h-2.2438v0.8467h1.3971v4.3182h-1.3971v0.8467h3.7255v-0.8467z"
       id="path2118" />
    <path
       d="m34.773 16.67v2.1676l-0.70276-0.47415h-0.65196c-0.83823 0-1.5241 0.67736-1.5241 1.5241v1.27c0 0.83823 0.68583 1.5241 1.5241 1.5241h0.65196l0.70276-0.47415v0.47415h0.8467v-6.0116zm-0.96524 5.1649h-0.38948c-0.37255 0-0.67736-0.30481-0.67736-0.67736v-1.27c0-0.37255 0.30481-0.67736 0.67736-0.67736h0.38948l0.96524 0.65196v1.3209z"
       id="path2120" />
    <path
       d="m44.249 18.364h-0.65196l-0.70276 0.47415v-2.1676h-0.8467v6.0116h0.8467v-0.47415l0.70276 0.47415h0.65196c0.83823 0 1.5241-0.68583 1.5241-1.5241v-1.27c0-0.8467-0.68583-1.5241-1.5241-1.5241zm0.67736 2.7941c0 0.37255-0.30481 0.67736-0.67736 0.67736h-0.38948l-0.96524-0.65196v-1.3209l0.96524-0.65196h0.38948c0.37255 0 0.67736 0.30481 0.67736 0.67736z"
       id="path2122" />
    <path
       d="m50.003 18.364v2.8195l-0.96524 0.65196h-0.38948c-0.37255 0-0.67736-0.30481-0.67736-0.67736v-2.7941h-0.8467v2.7941c0 0.8467 0.68583 1.5241 1.5241 1.5241h0.65196l0.70276-0.47415v0.47415h0.8467v-4.3182z"
       id="path2124" />
    <path
       d="m54.445 16.755h-0.93137v0.8467h0.93137zm0 5.0802v-3.4715h-2.2438v0.8467h1.3971v2.6248h-1.3971v0.8467h3.7255v-0.8467z"
       id="path2126" />
    <path
       d="m59.522 21.835v-5.1649h-2.2438v0.8467h1.3971v4.3182h-1.3971v0.8467h3.7255v-0.8467z"
       id="path2128" />
    <path
       d="m65.234 16.67v2.1676l-0.70276-0.47415h-0.65196c-0.83823 0-1.5241 0.67736-1.5241 1.5241v1.27c0 0.83823 0.68583 1.5241 1.5241 1.5241h0.65196l0.70276-0.47415v0.47415h0.8467v-6.0116zm-0.96524 5.1649h-0.38948c-0.37255 0-0.67736-0.30481-0.67736-0.67736v-1.27c0-0.37255 0.30481-0.67736 0.67736-0.67736h0.38948l0.96524 0.65196v1.3209z"
       id="path2130" />
    <path
       d="m73.948 16.67v0.85517l0.16934 0.9229h0.50802l0.16934-0.9229v-0.85517z"
       id="path2132" />
    <path
       d="m80.634 23.537v-0.85517h-0.8467c-0.37255 0-0.67736-0.30481-0.67736-0.67736v-4.5722c0-0.37255 0.29634-0.67736 0.67736-0.67736h0.8467v-0.8467h-0.8467c-0.83823 0-1.5241 0.67736-1.5241 1.5241v4.5722c0 0.83823 0.68583 1.5325 1.5241 1.5325z"
       id="path2134" />
    <path
       d="m 84.792015,48.020291 h -0.65196 l -0.70276,0.47415 v -0.47415 h -0.8467 v 6.0962 h 0.8467 v -2.2522 l 0.70276,0.47415 h 0.65196 c 0.83823,0 1.5241,-0.67736 1.5241,-1.5241 v -1.27 c 0,-0.83823 -0.68583,-1.5241 -1.5241,-1.5241 z m 0.67736,2.7941 c 0,0.37255 -0.30481,0.67736 -0.67736,0.67736 h -0.38948 l -0.96524,-0.65196 v -1.3209 l 0.96524,-0.65196 h 0.38948 c 0.37255,0 0.67736,0.30481 0.67736,0.67736 z"
       id="path2136" />
    <path
       d="m 89.869015,48.020291 h -0.34715 l -1.0076,0.67736 v -0.67736 h -0.8467 v 4.3182 h 0.8467 v -2.6163 l 1.27,-0.85517 h 0.08467 c 0.37255,0 0.67736,0.30481 0.67736,0.67736 v 0.33868 h 0.8467 v -0.33868 c 0,-0.8467 -0.68583,-1.5241 -1.5241,-1.5241 z"
       id="path2138" />
    <path
       d="m 94.946015,52.338291 c 0.8467,0 1.5241,-0.66889 1.5241,-1.5156 v -1.2785 c 0,-0.8467 -0.67736,-1.5241 -1.5241,-1.5241 h -0.67736 c -0.8467,0 -1.5241,0.67736 -1.5241,1.5241 v 1.2785 c 0,0.8467 0.67736,1.5156 1.5241,1.5156 z m 0,-0.8467 h -0.67736 c -0.38102,-0.0085 -0.67736,-0.28788 -0.67736,-0.66889 v -1.2785 c 0,-0.38102 0.29634,-0.67736 0.67736,-0.67736 h 0.67736 c 0.38102,0 0.67736,0.29634 0.67736,0.67736 v 1.2785 c 0,0.38102 -0.29634,0.66889 -0.67736,0.66889 z"
       id="path2140" />
    <path
       d="m 100.69802,48.020291 v 0.47415 l -0.702761,-0.47415 h -0.65196 c -0.83823,0 -1.5241,0.67736 -1.5241,1.5241 v 1.27 c 0,0.83823 0.68583,1.5241 1.5241,1.5241 h 0.65196 l 0.702761,-0.47415 v 0.7197 c 0,0.37255 -0.30481,0.67736 -0.67736,0.67736 h -0.677361 c -0.37255,0 -0.67736,-0.30481 -0.67736,-0.67736 h -0.8467 c 0,0.83823 0.68583,1.5325 1.5241,1.5325 h 0.677361 c 0.8467,0 1.5241,-0.69429 1.5241,-1.5325 v -4.5637 z m -0.965231,3.4715 h -0.38948 c -0.37255,0 -0.67736,-0.30481 -0.67736,-0.67736 v -1.27 c 0,-0.37255 0.30481,-0.67736 0.67736,-0.67736 h 0.38948 l 0.965231,0.65196 v 1.3209 z"
       id="path2142" />
    <path
       d="m 105.09802,48.020291 h -0.34714 l -1.0076,0.67736 v -0.67736 h -0.8467 v 4.3182 h 0.8467 v -2.6163 l 1.27,-0.85517 h 0.0847 c 0.37255,0 0.67736,0.30481 0.67736,0.67736 v 0.33868 h 0.8467 v -0.33868 c 0,-0.8467 -0.68582,-1.5241 -1.5241,-1.5241 z"
       id="path2144" />
    <path
       d="m 110.85802,48.020291 v 0.47415 l -0.70276,-0.47415 h -0.65196 c -0.83823,0 -1.5241,0.67736 -1.5241,1.5241 v 1.27 c 0,0.83823 0.68583,1.5241 1.5241,1.5241 h 0.65196 l 0.70276,-0.47415 v 0.47415 h 0.8467 v -4.3182 z m -0.96524,3.4715 h -0.38948 c -0.37255,0 -0.67736,-0.30481 -0.67736,-0.67736 v -1.27 c 0,-0.37255 0.30481,-0.67736 0.67736,-0.67736 h 0.38948 l 0.96524,0.65196 v 1.3209 z"
       id="path2146" />
    <path
       d="m 115.91802,48.020291 h -0.0677 l -0.61809,0.60116 c -0.16088,-0.40642 -0.47415,-0.60116 -0.92291,-0.60116 h -0.0677 l -0.50802,0.49109 v -0.49109 h -0.8467 v 4.3182 h 0.8467 v -2.6417 l 0.74509,-0.71123 c 0.0169,0.09314 0.0169,0.22861 0.0169,0.38948 v 2.9634 h 0.8467 v -2.6417 l 0.74509,-0.71123 c 0.0169,0.09314 0.0169,0.22861 0.0169,0.38948 v 2.9634 h 0.8467 v -2.9634 c 0,-0.93137 -0.36408,-1.3547 -1.033,-1.3547 z m -1.6511,0.71123 h -0.0508 z m 1.6087,0 h -0.0508 z"
       id="path2148" />
    <path
       d="m 120.98802,48.020291 h -0.0677 l -0.61809,0.60116 c -0.16087,-0.40642 -0.47415,-0.60116 -0.9229,-0.60116 h -0.0677 l -0.50802,0.49109 v -0.49109 h -0.8467 v 4.3182 h 0.8467 v -2.6417 l 0.7451,-0.71123 c 0.0169,0.09314 0.0169,0.22861 0.0169,0.38948 v 2.9634 h 0.8467 v -2.6417 l 0.7451,-0.71123 c 0.0169,0.09314 0.0169,0.22861 0.0169,0.38948 v 2.9634 h 0.8467 v -2.9634 c 0,-0.93137 -0.36408,-1.3547 -1.033,-1.3547 z m -1.6511,0.71123 h -0.0508 z m 1.6087,0 h -0.0508 z"
       id="path2150" />
    <path
       d="m 126.08802,48.020291 v 0.47415 l -0.70276,-0.47415 h -0.65196 c -0.83823,0 -1.5241,0.67736 -1.5241,1.5241 v 1.27 c 0,0.83823 0.68583,1.5241 1.5241,1.5241 h 0.65196 l 0.70276,-0.47415 v 0.47415 h 0.8467 v -4.3182 z m -0.96523,3.4715 h -0.38949 c -0.37254,0 -0.67736,-0.30481 -0.67736,-0.67736 v -1.27 c 0,-0.37255 0.30482,-0.67736 0.67736,-0.67736 h 0.38949 l 0.96523,0.65196 v 1.3209 z"
       id="path2152" />
    <path
       d="m 130.48802,48.020291 h -0.65196 l -0.70276,0.47415 v -2.1676 h -0.8467 v 6.0116 h 0.8467 v -0.47415 l 0.70276,0.47415 h 0.65196 c 0.83824,0 1.5241,-0.68583 1.5241,-1.5241 v -1.27 c 0,-0.8467 -0.68582,-1.5241 -1.5241,-1.5241 z m 0.67736,2.7941 c 0,0.37255 -0.30481,0.67736 -0.67736,0.67736 h -0.38948 l -0.96524,-0.65196 v -1.3209 l 0.96524,-0.65196 h 0.38948 c 0.37255,0 0.67736,0.30481 0.67736,0.67736 z"
       id="path2154" />
    <path
       d="m 135.60802,51.491291 v -5.1649 h -2.2438 v 0.8467 h 1.397 v 4.3182 h -1.397 v 0.8467 h 3.7255 v -0.8467 z"
       id="path2156" />
    <path
       d="m 142.15802,49.459291 c -0.0423,-0.80436 -0.70276,-1.4394 -1.5241,-1.4394 h -0.67736 c -0.83824,0 -1.5241,0.67736 -1.5241,1.5241 v 1.2616 c 0,0.83823 0.68582,1.5325 1.5241,1.5325 h 0.67736 c 0.8467,0 1.5241,-0.69429 1.5241,-1.5325 v -0.08467 h -0.8467 v 0.08467 c 0,0.37255 -0.30482,0.67736 -0.67736,0.67736 h -0.67736 c -0.37255,0 -0.67736,-0.30481 -0.67736,-0.67736 v -0.43182 h 2.8788 v -0.7451 z m -0.8467,0.23708 h -2.0321 v -0.15241 c 0,-0.37255 0.29634,-0.67736 0.67736,-0.67736 h 0.67736 c 0.38101,0 0.67736,0.29634 0.67736,0.67736 z"
       id="path2158" />
    <path
       d="m 84.717039,27.82166 h -0.65196 l -0.70276,0.47415 v -0.47415 h -0.8467 v 6.0962 h 0.8467 v -2.2522 l 0.70276,0.47415 h 0.65196 c 0.83823,0 1.5241,-0.67736 1.5241,-1.5241 v -1.27 c 0,-0.83823 -0.68583,-1.5241 -1.5241,-1.5241 z m 0.67736,2.7941 c 0,0.37255 -0.30481,0.67736 -0.67736,0.67736 h -0.38948 l -0.96524,-0.65196 v -1.3209 l 0.96524,-0.65196 h 0.38948 c 0.37255,0 0.67736,0.30481 0.67736,0.67736 z"
       id="path2184" />
    <path
       d="m 89.794039,27.82166 h -0.34715 l -1.0076,0.67736 v -0.67736 h -0.8467 v 4.3182 h 0.8467 v -2.6163 l 1.27,-0.85517 h 0.08467 c 0.37255,0 0.67736,0.30481 0.67736,0.67736 v 0.33868 h 0.8467 v -0.33868 c 0,-0.8467 -0.68583,-1.5241 -1.5241,-1.5241 z"
       id="path2186" />
    <path
       d="m 94.913039,26.21266 h -0.93137 v 0.8467 h 0.93137 z m 0,5.0802 v -3.4715 h -2.2438 v 0.8467 h 1.3971 v 2.6248 h -1.3971 v 0.8467 h 3.7255 v -0.8467 z"
       id="path2188" />
    <path
       d="m 100.62304,27.82166 v 1.7103 l -1.007601,1.6595 h -0.01693 l -1.0076,-1.6595 v -1.7103 h -0.8467 v 1.9474 l 1.4394,2.3708 h 0.846701 l 1.4394,-2.3708 v -1.9474 z"
       id="path2190" />
    <path
       d="m 105.70304,27.82166 v 0.47415 l -0.70276,-0.47415 h -0.65196 c -0.83823,0 -1.5241,0.67736 -1.5241,1.5241 v 1.27 c 0,0.83823 0.68583,1.5241 1.5241,1.5241 h 0.65196 l 0.70276,-0.47415 v 0.47415 h 0.8467 v -4.3182 z m -0.96524,3.4715 h -0.38948 c -0.37255,0 -0.67736,-0.30481 -0.67736,-0.67736 v -1.27 c 0,-0.37255 0.30481,-0.67736 0.67736,-0.67736 h 0.38948 l 0.96524,0.65196 v 1.3209 z"
       id="path2192" />
    <path
       d="m 111.62304,28.66866 v -0.8467 h -1.5664 v -1.1007 h -0.8467 v 1.1007 h -1.3124 v 0.8467 h 1.3124 v 1.9474 c 0,0.8467 0.67736,1.5241 1.5241,1.5241 h 0.88904 v -0.8467 h -0.88904 c -0.38101,0 -0.67736,-0.29634 -0.67736,-0.67736 v -1.9474 z"
       id="path2194" />
    <path
       d="m 116.70304,29.26066 c -0.0423,-0.80436 -0.70276,-1.4394 -1.5241,-1.4394 h -0.67736 c -0.83823,0 -1.5241,0.67736 -1.5241,1.5241 v 1.2616 c 0,0.83823 0.68583,1.5325 1.5241,1.5325 h 0.67736 c 0.8467,0 1.5241,-0.69429 1.5241,-1.5325 v -0.08467 h -0.8467 v 0.08467 c 0,0.37255 -0.30481,0.67736 -0.67736,0.67736 h -0.67736 c -0.37255,0 -0.67736,-0.30481 -0.67736,-0.67736 v -0.43182 h 2.8788 v -0.7451 z m -0.8467,0.23708 h -2.0321 v -0.15241 c 0,-0.37255 0.29634,-0.67736 0.67736,-0.67736 h 0.67736 c 0.38101,0 0.67736,0.29634 0.67736,0.67736 z"
       id="path2196" />
    <path
       d="m 84.639412,17.645094 h 0.80436 v -0.8467 h -0.80436 c -0.8467,0 -1.5241,0.67736 -1.5241,1.5241 v 0.42335 h -1.3971 v 0.8467 h 1.3971 v 3.2175 h 0.8467 v -3.2175 h 1.4817 v -0.8467 h -1.4817 v -0.42335 c 0,-0.38102 0.29634,-0.67736 0.67736,-0.67736 z"
       id="path2198" />
    <path
       d="m 89.673412,18.492094 v 0.47415 l -0.70276,-0.47415 h -0.65196 c -0.83823,0 -1.5241,0.67736 -1.5241,1.5241 v 1.27 c 0,0.83823 0.68583,1.5241 1.5241,1.5241 h 0.65196 l 0.70276,-0.47415 v 0.47415 h 0.8467 v -4.3182 z m -0.96524,3.4715 h -0.38948 c -0.37255,0 -0.67736,-0.30481 -0.67736,-0.67736 v -1.27 c 0,-0.37255 0.30481,-0.67736 0.67736,-0.67736 h 0.38948 l 0.96524,0.65196 v 1.3209 z"
       id="path2200" />
    <path
       d="m 91.872412,21.388094 v 0.16934 c 0,0.7197 0.60962,1.2531 1.4309,1.2531 h 0.85517 c 0.85517,0 1.4394,-0.48262 1.4394,-1.1938 0,-1.7273 -2.8195,-1.2955 -2.8195,-1.9813 0,-0.17781 0.15241,-0.29634 0.50802,-0.29634 h 0.81283 c 0.29634,0 0.50802,0.17781 0.50802,0.41488 v 0.0762 h 0.8467 v -0.0762 c 0,-0.71123 -0.59269,-1.2616 -1.3547,-1.2616 h -0.81283 c -0.80436,0 -1.3547,0.45722 -1.3547,1.143 0,1.6426 2.8195,1.0245 2.8195,1.9813 0,0.21168 -0.19474,0.34715 -0.59269,0.34715 h -0.85517 c -0.36408,0 -0.58422,-0.16934 -0.58422,-0.40642 v -0.16934 z"
       id="path2202" />
    <path
       d="m 100.67541,19.339094 v -0.8467 h -1.566398 v -1.1007 h -0.8467 v 1.1007 h -1.3124 v 0.8467 h 1.3124 v 1.9474 c 0,0.8467 0.67736,1.5241 1.5241,1.5241 h 0.889028 v -0.8467 h -0.889028 c -0.38102,0 -0.67736,-0.29634 -0.67736,-0.67736 v -1.9474 z"
       id="path2204" />
    <path
       d="m 85.542,60.272214 v 0.08467 h 0.8467 v -0.08467 c 0,-0.8467 -0.67736,-1.5241 -1.5241,-1.5241 h -0.67736 c -0.83823,0 -1.5241,0.67736 -1.5241,1.5241 v 1.2616 c 0,0.83823 0.68583,1.5325 1.5241,1.5325 h 0.67736 c 0.8467,0 1.5241,-0.69429 1.5241,-1.5325 v -0.08467 H 85.542 v 0.08467 c 0,0.37255 -0.30481,0.67736 -0.67736,0.67736 h -0.67736 c -0.37255,0 -0.67736,-0.30481 -0.67736,-0.67736 v -1.2616 c 0,-0.37255 0.29634,-0.67736 0.67736,-0.67736 h 0.67736 c 0.38102,0 0.67736,0.29634 0.67736,0.67736 z"
       id="path2206" />
    <path
       d="m 90.618,58.748214 v 2.8195 l -0.96524,0.65196 h -0.38948 c -0.37255,0 -0.67736,-0.30481 -0.67736,-0.67736 v -2.7941 h -0.8467 v 2.7941 c 0,0.8467 0.68583,1.5241 1.5241,1.5241 h 0.65196 l 0.70276,-0.47415 v 0.47415 h 0.8467 v -4.3182 z"
       id="path2208" />
    <path
       d="m 96.542,59.595214 v -0.8467 h -1.5664 v -1.1007 h -0.8467 v 1.1007 h -1.3124 v 0.8467 h 1.3124 v 1.9474 c 0,0.8467 0.67736,1.5241 1.5241,1.5241 h 0.88904 v -0.8467 H 95.653 c -0.38102,0 -0.67736,-0.29634 -0.67736,-0.67736 v -1.9474 z"
       id="path2210" />
    <path
       d="m 101.62,60.187214 c -0.0423,-0.80436 -0.70276,-1.4394 -1.5241,-1.4394 h -0.67736 c -0.83823,0 -1.5241,0.67736 -1.5241,1.5241 v 1.2616 c 0,0.83823 0.68583,1.5325 1.5241,1.5325 h 0.67736 c 0.8467,0 1.5241,-0.69429 1.5241,-1.5325 v -0.08467 h -0.8467 v 0.08467 c 0,0.37255 -0.30481,0.67736 -0.67736,0.67736 h -0.67736 c -0.37255,0 -0.67736,-0.30481 -0.67736,-0.67736 v -0.43182 h 2.8788 v -0.7451 z m -0.8467,0.23708 h -2.0321 v -0.15241 c 0,-0.37255 0.29634,-0.67736 0.67736,-0.67736 h 0.67736 c 0.38102,0 0.67736,0.29634 0.67736,0.67736 z"
       id="path2212" />
    <path
       d="m 103.65,63.921214 h 0.8467 c 0.83824,0 1.5241,-0.69429 1.5241,-1.5325 v -4.5722 c 0,-0.8467 -0.68582,-1.5241 -1.5241,-1.5241 H 103.65 v 0.8467 h 0.8467 c 0.38102,0 0.67736,0.30481 0.67736,0.67736 v 4.5722 c 0,0.37255 -0.30481,0.67736 -0.67736,0.67736 H 103.65 Z"
       id="path2214" />
    <path
       d="m 108.72,63.921214 h 0.8467 c 0.83823,0 1.5241,-0.69429 1.5241,-1.5325 v -4.5722 c 0,-0.8467 -0.68583,-1.5241 -1.5241,-1.5241 H 108.72 v 0.8467 h 0.8467 c 0.38101,0 0.67736,0.30481 0.67736,0.67736 v 4.5722 c 0,0.37255 -0.30481,0.67736 -0.67736,0.67736 H 108.72 Z"
       id="path2216" />
    <path
       d="m 113.8,63.921214 h 0.8467 c 0.83823,0 1.5241,-0.69429 1.5241,-1.5325 v -4.5722 c 0,-0.8467 -0.68583,-1.5241 -1.5241,-1.5241 H 113.8 v 0.8467 h 0.8467 c 0.38101,0 0.67736,0.30481 0.67736,0.67736 v 4.5722 c 0,0.37255 -0.30481,0.67736 -0.67736,0.67736 H 113.8 Z"
       id="path2218" />
  </g>
</svg>
